# xmcd
#
# Track frame offsets: 
#        150
#        17512
#        42272
#        62702
#        79937
#        96683
#        114353
#        143185
#        162237
#        176464
#
# Disc length: 2606 seconds
#
# Revision: 0
# Processed by: cddbd v1.5.2PL0 Copyright (c) Steve Scherf et al.
# Submitted via: ExactAudioCopy v1.0b3
#
DISCID=800a2c0a
DTITLE=Pat Green  - Songs We Wish We´d  Written II
DYEAR=2012
DGENRE=Rock
TTITLE0=All Just To Get To You
TTITLE1=Streets Of Galilee
TTITLE2=Jesus On A Greyhound
TTITLE3=Even The Losers
TTITLE4=Austin
TTITLE5=If It Weren't For You
TTITLE6=Soulshine
TTITLE7=The World I Know
TTITLE8=If I Had A Boat
TTITLE9=I Am Too
EXTD=
EXTT0=
EXTT1=
EXTT2=
EXTT3=
EXTT4=
EXTT5=
EXTT6=
EXTT7=
EXTT8=
EXTT9=
PLAYORDER=
